<svg xmlns="http://www.w3.org/2000/svg" width="1320" height="780" viewBox="0 0 1320 780" role="img" aria-labelledby="title desc">
  <title id="title">Flux fonctionnels FLOW a travers produits et fonctionnalites</title>
  <desc id="desc">Schema d architecture fonctionnelle montrant comment une intention venant de l Engagement traverse les produits FLOW, produit une promesse et un plan d execution, puis recoit les retours Supply.</desc>
  <defs>
    <marker id="arrow" markerWidth="12" markerHeight="12" refX="10" refY="6" orient="auto" markerUnits="strokeWidth">
      <path d="M2,2 L10,6 L2,10 Z" fill="#405466" />
    </marker>
    <marker id="arrow-green" markerWidth="12" markerHeight="12" refX="10" refY="6" orient="auto" markerUnits="strokeWidth">
      <path d="M2,2 L10,6 L2,10 Z" fill="#2b7a58" />
    </marker>
    <style>
      .bg { fill: #f7f9fb; }
      .domain { fill: #ffffff; stroke: #c9d3dc; stroke-width: 2; rx: 18; }
      .flow-core { fill: #f0f7ff; stroke: #5f8bb5; stroke-width: 3; rx: 22; }
      .product { fill: #ffffff; stroke: #8fa7bc; stroke-width: 2; rx: 12; }
      .feature { fill: #eef5f0; stroke: #86aa94; stroke-width: 1.5; rx: 10; }
      .decision { fill: #fff6df; stroke: #d6a542; stroke-width: 2; rx: 14; }
      .data { fill: #f6eef8; stroke: #ad83b8; stroke-width: 1.5; rx: 10; }
      .feedback { fill: none; stroke: #2b7a58; stroke-width: 3; marker-end: url(#arrow-green); }
      .arrow { fill: none; stroke: #405466; stroke-width: 3; marker-end: url(#arrow); }
      .thin { fill: none; stroke: #6c7d8a; stroke-width: 2; marker-end: url(#arrow); }
      .label { font: 700 22px Arial, Helvetica, sans-serif; fill: #23313d; }
      .sub { font: 400 15px Arial, Helvetica, sans-serif; fill: #536574; }
      .small { font: 400 13px Arial, Helvetica, sans-serif; fill: #536574; }
      .box-title { font: 700 16px Arial, Helvetica, sans-serif; fill: #23313d; }
      .box-text { font: 400 13px Arial, Helvetica, sans-serif; fill: #536574; }
      .badge { font: 700 12px Arial, Helvetica, sans-serif; fill: #5a6b78; letter-spacing: .6px; }
    </style>
  </defs>

  <rect class="bg" x="0" y="0" width="1320" height="780" />

  <text class="label" x="48" y="48">Flux fonctionnels FLOW</text>
  <text class="sub" x="48" y="74">Niveau architecture : les flux traversent les produits et fonctionnalites, pas seulement les domaines.</text>

  <rect class="domain" x="40" y="118" width="210" height="520" />
  <text class="badge" x="64" y="150">ENGAGEMENT</text>
  <text class="box-title" x="64" y="182">Capte l'intention</text>
  <text class="box-text" x="64" y="210">Canaux</text>
  <text class="box-text" x="64" y="234">Portails</text>
  <text class="box-text" x="64" y="258">CRM</text>
  <text class="box-text" x="64" y="282">Negoce</text>
  <text class="box-text" x="64" y="306">Interfaces partenaires</text>
  <rect class="feature" x="64" y="354" width="162" height="86" />
  <text class="box-title" x="82" y="386">API d'entree</text>
  <text class="box-text" x="82" y="410">Creation ou mise a</text>
  <text class="box-text" x="82" y="430">jour de demande</text>

  <rect class="flow-core" x="305" y="104" width="710" height="560" />
  <text class="badge" x="330" y="138">COEUR FLOW : DEMAND + FULFILLMENT</text>

  <rect class="product" x="335" y="168" width="260" height="142" />
  <text class="box-title" x="356" y="199">Socle Case Management</text>
  <text class="box-text" x="356" y="226">Case, statut, journal</text>
  <text class="box-text" x="356" y="248">documents, exception</text>
  <text class="box-text" x="356" y="270">decision et promesse</text>

  <rect class="product" x="335" y="348" width="260" height="118" />
  <text class="box-title" x="356" y="379">Product Agreement Catalog</text>
  <text class="box-text" x="356" y="406">Produits, assortiments</text>
  <text class="box-text" x="356" y="428">agreements, conditions</text>

  <rect class="product" x="335" y="502" width="260" height="104" />
  <text class="box-title" x="356" y="533">Vues 360</text>
  <text class="box-text" x="356" y="560">Contexte client, fournisseur</text>
  <text class="box-text" x="356" y="582">Case et historique transverse</text>

  <rect class="product" x="642" y="168" width="330" height="88" />
  <text class="box-title" x="664" y="199">Regles et policies</text>
  <text class="box-text" x="664" y="226">Eligibilite, priorite, fallback, arbitrage</text>

  <rect class="product" x="642" y="282" width="330" height="92" />
  <text class="box-title" x="664" y="313">Stock Unifie</text>
  <text class="box-text" x="664" y="340">Disponibilite, reservation, allocation</text>

  <rect class="product" x="642" y="400" width="330" height="94" />
  <text class="box-title" x="664" y="431">Fulfillment Network Configuration</text>
  <text class="box-text" x="664" y="458">Noeuds, capacites, contraintes, SLA</text>

  <rect class="product" x="642" y="520" width="330" height="86" />
  <text class="box-title" x="664" y="551">Supply Service Registry</text>
  <text class="box-text" x="664" y="578">Services exposables par Supply</text>

  <rect class="decision" x="1035" y="255" width="230" height="150" />
  <text class="box-title" x="1060" y="288">Decision de Fulfillment</text>
  <text class="box-text" x="1060" y="316">Promesse tenable</text>
  <text class="box-text" x="1060" y="338">Plan d'execution</text>
  <text class="box-text" x="1060" y="360">Splits, substitutions</text>
  <text class="box-text" x="1060" y="382">ou exceptions</text>

  <rect class="domain" x="1040" y="118" width="230" height="112" />
  <text class="badge" x="1064" y="150">SUPPLY</text>
  <text class="box-title" x="1064" y="180">Expose les ressources</text>
  <text class="box-text" x="1064" y="206">Stocks, capacites, services</text>

  <rect class="domain" x="1040" y="442" width="230" height="196" />
  <text class="badge" x="1064" y="474">EXECUTION SUPPLY</text>
  <text class="box-text" x="1064" y="504">WMS, TMS, POS</text>
  <text class="box-text" x="1064" y="528">usines, fournisseurs</text>
  <text class="box-text" x="1064" y="552">transporteurs</text>
  <text class="box-text" x="1064" y="590">Faits, statuts, evenements</text>
  <text class="box-text" x="1064" y="612">preuves et exceptions</text>

  <rect class="data" x="330" y="686" width="620" height="70" />
  <text class="box-title" x="354" y="714">Pratique transverse : gouvernance des donnees en transit</text>
  <text class="box-text" x="354" y="738">Contrats de donnees, fraicheur, qualite, supervision, reconciliation</text>

  <path class="arrow" d="M226 397 C260 397 274 239 333 239" />
  <path class="thin" d="M595 239 L642 212" />
  <path class="thin" d="M595 407 L642 212" />
  <path class="thin" d="M595 407 L642 328" />
  <path class="thin" d="M972 212 C1010 212 1012 298 1035 318" />
  <path class="thin" d="M972 328 C1005 328 1010 330 1035 330" />
  <path class="thin" d="M972 447 C1012 447 1015 365 1035 354" />
  <path class="thin" d="M972 563 C1012 563 1015 383 1035 372" />
  <path class="arrow" d="M1150 405 L1150 442" />
  <path class="feedback" d="M1040 578 C838 640 630 646 466 606" />
  <path class="feedback" d="M1040 604 C750 708 438 714 226 430" />
  <path class="thin" d="M466 606 L466 690" />
  <path class="thin" d="M807 606 L807 690" />

  <text class="small" x="270" y="376">demande</text>
  <text class="small" x="1005" y="246">ressources</text>
  <text class="small" x="1170" y="428">plan</text>
  <text class="small" x="792" y="640">retours d'execution</text>
  <text class="small" x="250" y="588">statuts vers Engagement</text>
</svg>
