<svg xmlns="http://www.w3.org/2000/svg" width="1320" height="780" viewBox="0 0 1320 780" preserveAspectRatio="xMidYMid meet" role="img" aria-labelledby="title desc">
  <title id="title">Flux fonctionnels FLOW</title>
  <desc id="desc">Les flux traversent les produits et fonctionnalités FLOW, pas seulement les domaines.</desc>
  <defs>
    <style>
      .bg{fill:#f8fbfa}.panel{fill:#fff;stroke:#c7e4de;stroke-width:2}.panelSoft{fill:#eaf4f2;stroke:#236159;stroke-width:2}.accent{fill:#fff8f0;stroke:#e09238;stroke-width:2}.amber{fill:#fff8f0;stroke:#e09238;stroke-width:2}.green{fill:#eaf4f2;stroke:#236159;stroke-width:2}.blue{fill:#edf6fb;stroke:#7fb2d4;stroke-width:2}.purple{fill:#f4f0fb;stroke:#a98bd3;stroke-width:2}.grey{fill:#f4f6f8;stroke:#cbd5e1;stroke-width:2}.red{fill:#fff0ef;stroke:#d98b7d;stroke-width:2}.core{fill:#236159;stroke:#0b3954;stroke-width:2}.dark{fill:#0b3954;stroke:#052437;stroke-width:2}.title{font:700 28px Aptos,Calibri,Segoe UI,sans-serif;fill:#236159}.subtitle{font:600 16px Aptos,Calibri,Segoe UI,sans-serif;fill:#5b6b78}.h{font:700 18px Aptos,Calibri,Segoe UI,sans-serif;fill:#0b3954}.hWhite{font:700 18px Aptos,Calibri,Segoe UI,sans-serif;fill:#fff}.txt{font:500 15px Aptos,Calibri,Segoe UI,sans-serif;fill:#1e293b}.small{font:500 13px Aptos,Calibri,Segoe UI,sans-serif;fill:#5b6b78}.smallWhite{font:500 13px Aptos,Calibri,Segoe UI,sans-serif;fill:#eaf4f2}.pill{fill:#eaf4f2;stroke:#c7e4de;stroke-width:1.5}.pillAccent{fill:#fff8f0;stroke:#e09238;stroke-width:1.5}.pillText{font:700 12px Aptos,Calibri,Segoe UI,sans-serif;fill:#0b3954}.pillAccentText{font:700 12px Aptos,Calibri,Segoe UI,sans-serif;fill:#8a4f0f}.arrow{stroke:#236159;stroke-width:2.5;fill:none;marker-end:url(#arrow)}.arrowAccent{stroke:#e09238;stroke-width:2.5;fill:none;marker-end:url(#arrowAccent)}.arrowSoft{stroke:#8aa7a1;stroke-width:2;fill:none;stroke-dasharray:6 6;marker-end:url(#arrow)}.dash{stroke-dasharray:6 6}.label{font:700 12px Aptos,Calibri,Segoe UI,sans-serif;fill:#236159}.labelAccent{font:700 12px Aptos,Calibri,Segoe UI,sans-serif;fill:#8a4f0f}.num{font:800 20px Aptos,Calibri,Segoe UI,sans-serif;fill:#e09238}
    </style>
    <marker id="arrow" viewBox="0 0 10 10" refX="9" refY="5" markerWidth="8" markerHeight="8" orient="auto-start-reverse"><path d="M0,0 L10,5 L0,10 z" fill="#236159"/></marker>
    <marker id="arrowAccent" viewBox="0 0 10 10" refX="9" refY="5" markerWidth="8" markerHeight="8" orient="auto-start-reverse"><path d="M0,0 L10,5 L0,10 z" fill="#e09238"/></marker>
  </defs>

  <rect class="bg" x="0" y="0" width="1320" height="780" rx="24"/>
  <text class="title" x="660" y="58" text-anchor="middle">Flux fonctionnels FLOW</text>
  <text class="subtitle" x="660" y="86" text-anchor="middle">Niveau architecture : les flux traversent les produits et fonctionnalités, pas seulement les domaines.</text>
  <rect class="blue" x="45" y="140" width="230" height="470" rx="22"/>
  <rect class="core" x="325" y="115" width="670" height="520" rx="28"/>
  <rect class="green" x="1045" y="140" width="230" height="470" rx="22"/>
  <text class="h" x="160" y="185" text-anchor="middle">ENGAGEMENT</text>
  <text class="hWhite" x="660" y="160" text-anchor="middle">COEUR FLOW : DEMAND + FULFILLMENT</text>
  <text class="h" x="1160" y="185" text-anchor="middle">SUPPLY</text>
  <text class="small" x="92" y="235">Capte l'intention</text>
  <text class="small" x="92" y="267">Canaux</text>
  <text class="small" x="92" y="299">Portails</text>
  <text class="small" x="92" y="331">CRM</text>
  <text class="small" x="92" y="363">Négoce</text>
  <text class="small" x="92" y="395">Interfaces partenaires</text>
  <text class="small" x="92" y="427">API d'entrée</text>
  <text class="small" x="1090" y="235">Expose les ressources</text>
  <text class="small" x="1090" y="267">Stocks</text>
  <text class="small" x="1090" y="299">Capacités</text>
  <text class="small" x="1090" y="331">Services</text>
  <text class="small" x="1090" y="363">WMS, TMS, POS</text>
  <text class="small" x="1090" y="395">usines, fournisseurs</text>
  <text class="small" x="1090" y="427">transporteurs</text>
  <rect class="panel" x="365" y="205" width="260" height="122" rx="18"/>
  <text class="h" x="389" y="245">Socle Case Management</text>
  <text class="small" x="389" y="277">Case, statut, journal</text>
  <text class="small" x="389" y="297">documents, exception</text>
  <rect class="panel" x="690" y="205" width="260" height="146" rx="18"/>
  <text class="h" x="714" y="245">Product Agreement</text>
  <text class="h" x="714" y="269">Catalog</text>
  <text class="small" x="714" y="301">Produits, assortiments</text>
  <text class="small" x="714" y="321">agreements, conditions</text>
  <rect class="panel" x="365" y="350" width="260" height="122" rx="18"/>
  <text class="h" x="389" y="390">Vues 360</text>
  <text class="small" x="389" y="422">Contexte client, fournisseur</text>
  <text class="small" x="389" y="442">Case et historique transverse</text>
  <rect class="accent" x="690" y="350" width="260" height="122" rx="18"/>
  <text class="h" x="714" y="390">Règles et policies</text>
  <text class="small" x="714" y="422">Éligibilité, priorité</text>
  <text class="small" x="714" y="442">fallback, arbitrage</text>
  <rect class="panel" x="365" y="495" width="260" height="122" rx="18"/>
  <text class="h" x="389" y="535">Stock Unifié</text>
  <text class="small" x="389" y="567">Disponibilité, réservation</text>
  <text class="small" x="389" y="587">allocation</text>
  <rect class="panel" x="690" y="495" width="260" height="122" rx="18"/>
  <text class="h" x="714" y="535">Fulfillment Network</text>
  <text class="small" x="714" y="567">Noeuds, capacités</text>
  <text class="small" x="714" y="587">contraintes, SLA</text>
  <rect class="amber" x="430" y="650" width="460" height="64" rx="18"/>
  <text class="h" x="660" y="675" text-anchor="middle">Pratique transverse : gouvernance des données en transit</text>
  <text class="small" x="660" y="700" text-anchor="middle">Contrats de données, fraîcheur, qualité, supervision, réconciliation</text>
  <path class="arrow" d="M275 375 L325 375"/>
  <path class="arrow" d="M995 375 L1045 375"/>
  <path class="arrowSoft" d="M1045 535 C1010 585 935 620 890 660"/>
  <path class="arrowSoft" d="M325 535 C285 585 235 620 190 610"/>
  <text class="label" x="300" y="355" text-anchor="middle">demande</text>
  <text class="label" x="1020" y="355" text-anchor="middle">ressources</text>
  <text class="labelAccent" x="1015" y="620" text-anchor="middle">retours d'exécution</text>
</svg>
