<svg xmlns="http://www.w3.org/2000/svg" width="1600" height="980" viewBox="0 0 1600 980" preserveAspectRatio="xMidYMid meet" role="img" aria-labelledby="title desc">
  <title id="title">Modèle mental des connaissances FLOW</title>
  <desc id="desc">Reconnaître une information, la ranger au bon endroit, puis mesurer ses impacts.</desc>
  <defs>
    <style>
      .bg{fill:#f8fbfa}.panel{fill:#fff;stroke:#c7e4de;stroke-width:2}.panelSoft{fill:#eaf4f2;stroke:#236159;stroke-width:2}.accent{fill:#fff8f0;stroke:#e09238;stroke-width:2}.amber{fill:#fff8f0;stroke:#e09238;stroke-width:2}.green{fill:#eaf4f2;stroke:#236159;stroke-width:2}.blue{fill:#edf6fb;stroke:#7fb2d4;stroke-width:2}.purple{fill:#f4f0fb;stroke:#a98bd3;stroke-width:2}.grey{fill:#f4f6f8;stroke:#cbd5e1;stroke-width:2}.red{fill:#fff0ef;stroke:#d98b7d;stroke-width:2}.core{fill:#236159;stroke:#0b3954;stroke-width:2}.dark{fill:#0b3954;stroke:#052437;stroke-width:2}.title{font:700 28px Aptos,Calibri,Segoe UI,sans-serif;fill:#236159}.subtitle{font:600 16px Aptos,Calibri,Segoe UI,sans-serif;fill:#5b6b78}.h{font:700 18px Aptos,Calibri,Segoe UI,sans-serif;fill:#0b3954}.hWhite{font:700 18px Aptos,Calibri,Segoe UI,sans-serif;fill:#fff}.txt{font:500 15px Aptos,Calibri,Segoe UI,sans-serif;fill:#1e293b}.small{font:500 13px Aptos,Calibri,Segoe UI,sans-serif;fill:#5b6b78}.smallWhite{font:500 13px Aptos,Calibri,Segoe UI,sans-serif;fill:#eaf4f2}.pill{fill:#eaf4f2;stroke:#c7e4de;stroke-width:1.5}.pillAccent{fill:#fff8f0;stroke:#e09238;stroke-width:1.5}.pillText{font:700 12px Aptos,Calibri,Segoe UI,sans-serif;fill:#0b3954}.pillAccentText{font:700 12px Aptos,Calibri,Segoe UI,sans-serif;fill:#8a4f0f}.arrow{stroke:#236159;stroke-width:2.5;fill:none;marker-end:url(#arrow)}.arrowAccent{stroke:#e09238;stroke-width:2.5;fill:none;marker-end:url(#arrowAccent)}.arrowSoft{stroke:#8aa7a1;stroke-width:2;fill:none;stroke-dasharray:6 6;marker-end:url(#arrow)}.dash{stroke-dasharray:6 6}.label{font:700 12px Aptos,Calibri,Segoe UI,sans-serif;fill:#236159}.labelAccent{font:700 12px Aptos,Calibri,Segoe UI,sans-serif;fill:#8a4f0f}.num{font:800 20px Aptos,Calibri,Segoe UI,sans-serif;fill:#e09238}
    </style>
    <marker id="arrow" viewBox="0 0 10 10" refX="9" refY="5" markerWidth="8" markerHeight="8" orient="auto-start-reverse"><path d="M0,0 L10,5 L0,10 z" fill="#236159"/></marker>
    <marker id="arrowAccent" viewBox="0 0 10 10" refX="9" refY="5" markerWidth="8" markerHeight="8" orient="auto-start-reverse"><path d="M0,0 L10,5 L0,10 z" fill="#e09238"/></marker>
  </defs>

  <rect class="bg" x="0" y="0" width="1600" height="980" rx="24"/>
  <text class="title" x="800" y="70" text-anchor="middle">Modèle mental des connaissances FLOW</text>
  <text class="subtitle" x="800" y="100" text-anchor="middle">Reconnaître une information, la ranger au bon endroit, puis mesurer ses impacts dans le référentiel.</text>
  <rect class="blue" x="70" y="150" width="440" height="700" rx="24"/>
  <text class="h" x="290" y="198" text-anchor="middle">1. MATIÈRE ENTRANTE</text>
  <rect class="panel" x="105" y="240" width="370" height="122" rx="18"/>
  <text class="h" x="129" y="280">Réunion datée</text>
  <text class="small" x="129" y="312">atelier, transcript, notes</text>
  <text class="small" x="129" y="332">contexte et périmètre</text>
  <rect class="panel" x="105" y="356" width="370" height="122" rx="18"/>
  <text class="h" x="129" y="396">Faits observés</text>
  <text class="small" x="129" y="428">ce qui est dit ou confirmé</text>
  <text class="small" x="129" y="448">sans sur-interprétation</text>
  <rect class="panel" x="105" y="472" width="370" height="122" rx="18"/>
  <text class="h" x="129" y="512">Insights</text>
  <text class="small" x="129" y="544">ce que cela change</text>
  <text class="small" x="129" y="564">dans la compréhension FLOW</text>
  <rect class="panel" x="105" y="588" width="370" height="122" rx="18"/>
  <text class="h" x="129" y="628">Questions ouvertes</text>
  <text class="small" x="129" y="660">hypothèses, risques</text>
  <text class="small" x="129" y="680">arbitrages à instruire</text>
  <rect class="panelSoft" x="560" y="150" width="440" height="700" rx="24"/>
  <text class="h" x="780" y="198" text-anchor="middle">2. STRUCTURE DE CONNAISSANCE</text>
  <rect class="panel" x="595" y="240" width="370" height="122" rx="18"/>
  <text class="h" x="619" y="280">Vision</text>
  <text class="small" x="619" y="312">pourquoi, ambition</text>
  <text class="small" x="619" y="332">positionnement cible</text>
  <rect class="panel" x="595" y="356" width="370" height="122" rx="18"/>
  <text class="h" x="619" y="396">Principes</text>
  <text class="small" x="619" y="428">règles durables</text>
  <text class="small" x="619" y="448">de conception</text>
  <rect class="panel" x="595" y="472" width="370" height="122" rx="18"/>
  <text class="h" x="619" y="512">Concepts / domaines</text>
  <text class="small" x="619" y="544">vocabulaire, glossaire</text>
  <text class="small" x="619" y="564">frontières stables</text>
  <rect class="panel" x="595" y="588" width="370" height="122" rx="18"/>
  <text class="h" x="619" y="628">Capacités / produits</text>
  <text class="small" x="619" y="660">ce qu'il faut savoir faire</text>
  <text class="small" x="619" y="680">socles et services FLOW</text>
  <rect class="panel" x="595" y="704" width="370" height="122" rx="18"/>
  <text class="h" x="619" y="744">Patterns</text>
  <text class="small" x="619" y="776">formes réutilisables</text>
  <text class="small" x="619" y="796">de solution</text>
  <rect class="green" x="1090" y="150" width="440" height="700" rx="24"/>
  <text class="h" x="1310" y="198" text-anchor="middle">3. IMPACTS ET GOUVERNANCE</text>
  <rect class="panel" x="1125" y="240" width="370" height="122" rx="18"/>
  <text class="h" x="1149" y="280">Hotspots</text>
  <text class="small" x="1149" y="312">points sensibles</text>
  <text class="small" x="1149" y="332">à arbitrer</text>
  <rect class="panel" x="1125" y="356" width="370" height="122" rx="18"/>
  <text class="h" x="1149" y="396">Architecture cible</text>
  <text class="small" x="1149" y="428">produits, flux</text>
  <text class="small" x="1149" y="448">responsabilités</text>
  <rect class="panel" x="1125" y="472" width="370" height="122" rx="18"/>
  <text class="h" x="1149" y="512">Transformation</text>
  <text class="small" x="1149" y="544">changements</text>
  <text class="small" x="1149" y="564">d'usage et posture</text>
  <rect class="panel" x="1125" y="588" width="370" height="122" rx="18"/>
  <text class="h" x="1149" y="628">Contrôles</text>
  <text class="small" x="1149" y="660">cartouches, métriques</text>
  <text class="small" x="1149" y="680">liens, rôles, build</text>
  <path class="arrow" d="M510 500 L560 500"/>
  <path class="arrow" d="M1000 500 L1090 500"/>
  <path class="arrowSoft" d="M1310 850 C1310 925 270 925 270 850"/>
  <text class="label" x="535" y="480" text-anchor="middle">alimente</text>
  <text class="label" x="1045" y="480" text-anchor="middle">structure</text>
  <text class="label" x="800" y="912" text-anchor="middle">vérifie et maintient</text>
</svg>
