<svg xmlns="http://www.w3.org/2000/svg" width="1400" height="940" viewBox="0 0 1400 940" preserveAspectRatio="xMidYMid meet" role="img" aria-labelledby="title desc">
  <title id="title">Synthèse de l'écosystème applicatif GBM</title>
  <desc id="desc">Vue synthétique du paysage GBM et des responsabilités transverses candidates FLOW.</desc>
  <defs>
    <style>
      .bg{fill:#f8fbfa}.panel{fill:#fff;stroke:#c7e4de;stroke-width:2}.panelSoft{fill:#eaf4f2;stroke:#236159;stroke-width:2}.accent{fill:#fff8f0;stroke:#e09238;stroke-width:2}.amber{fill:#fff8f0;stroke:#e09238;stroke-width:2}.green{fill:#eaf4f2;stroke:#236159;stroke-width:2}.blue{fill:#edf6fb;stroke:#7fb2d4;stroke-width:2}.purple{fill:#f4f0fb;stroke:#a98bd3;stroke-width:2}.grey{fill:#f4f6f8;stroke:#cbd5e1;stroke-width:2}.red{fill:#fff0ef;stroke:#d98b7d;stroke-width:2}.core{fill:#236159;stroke:#0b3954;stroke-width:2}.dark{fill:#0b3954;stroke:#052437;stroke-width:2}.title{font:700 28px Aptos,Calibri,Segoe UI,sans-serif;fill:#236159}.subtitle{font:600 16px Aptos,Calibri,Segoe UI,sans-serif;fill:#5b6b78}.h{font:700 18px Aptos,Calibri,Segoe UI,sans-serif;fill:#0b3954}.hWhite{font:700 18px Aptos,Calibri,Segoe UI,sans-serif;fill:#fff}.txt{font:500 15px Aptos,Calibri,Segoe UI,sans-serif;fill:#1e293b}.small{font:500 13px Aptos,Calibri,Segoe UI,sans-serif;fill:#5b6b78}.smallWhite{font:500 13px Aptos,Calibri,Segoe UI,sans-serif;fill:#eaf4f2}.pill{fill:#eaf4f2;stroke:#c7e4de;stroke-width:1.5}.pillAccent{fill:#fff8f0;stroke:#e09238;stroke-width:1.5}.pillText{font:700 12px Aptos,Calibri,Segoe UI,sans-serif;fill:#0b3954}.pillAccentText{font:700 12px Aptos,Calibri,Segoe UI,sans-serif;fill:#8a4f0f}.arrow{stroke:#236159;stroke-width:2.5;fill:none;marker-end:url(#arrow)}.arrowAccent{stroke:#e09238;stroke-width:2.5;fill:none;marker-end:url(#arrowAccent)}.arrowSoft{stroke:#8aa7a1;stroke-width:2;fill:none;stroke-dasharray:6 6;marker-end:url(#arrow)}.dash{stroke-dasharray:6 6}.label{font:700 12px Aptos,Calibri,Segoe UI,sans-serif;fill:#236159}.labelAccent{font:700 12px Aptos,Calibri,Segoe UI,sans-serif;fill:#8a4f0f}.num{font:800 20px Aptos,Calibri,Segoe UI,sans-serif;fill:#e09238}
    </style>
    <marker id="arrow" viewBox="0 0 10 10" refX="9" refY="5" markerWidth="8" markerHeight="8" orient="auto-start-reverse"><path d="M0,0 L10,5 L0,10 z" fill="#236159"/></marker>
    <marker id="arrowAccent" viewBox="0 0 10 10" refX="9" refY="5" markerWidth="8" markerHeight="8" orient="auto-start-reverse"><path d="M0,0 L10,5 L0,10 z" fill="#e09238"/></marker>
  </defs>

  <rect class="bg" x="0" y="0" width="1400" height="940" rx="24"/>
  <text class="title" x="52" y="58">Panorama applicatif GBM — synthèse FLOW</text>
  <text class="subtitle" x="52" y="86">Un SI historiquement retail, ouvert au e-commerce puis au B2B, avec des responsabilités transverses candidates à FLOW.</text>
  <rect class="blue" x="50" y="125" width="1300" height="150" rx="22"/>
  <text class="h" x="75" y="160">Expériences, canaux et engagement client</text>
  <rect class="pill" x="78" y="190" width="115" height="30" rx="15"/>
  <text class="pillText" x="119" y="210">SFCC</text>
  <rect class="pill" x="245" y="190" width="115" height="30" rx="15"/>
  <text class="pillText" x="285" y="210">Mirakl</text>
  <rect class="pill" x="412" y="190" width="137" height="30" rx="15"/>
  <text class="pillText" x="435" y="210">Outils magasins</text>
  <rect class="pill" x="610" y="190" width="115" height="30" rx="15"/>
  <text class="pillText" x="633" y="210">Marketplace</text>
  <rect class="pill" x="805" y="190" width="115" height="30" rx="15"/>
  <text class="pillText" x="843" y="210">Elastic</text>
  <rect class="pill" x="960" y="190" width="115" height="30" rx="15"/>
  <text class="pillText" x="1003" y="210">Zoho</text>
  <rect class="pill" x="1115" y="190" width="228" height="30" rx="15"/>
  <text class="pillText" x="1138" y="210">Import / saisie commandes B2B</text>
  <rect class="amber" x="50" y="315" width="825" height="220" rx="18"/>
  <text class="h" x="74" y="355">Orchestration transverse et cycle de vie</text>
  <text class="small" x="74" y="387">UR : cycle de vie B2C, retours, litiges.</text>
  <text class="small" x="74" y="407">Socloz : omnicanal, stock, promesse.</text>
  <text class="small" x="74" y="427">OMS C-LOG : fulfillment, scoring, crossdock.</text>
  <text class="small" x="74" y="447">EAI C-LOG : échanges, transformations et statuts.</text>

  <rect class="green" x="50" y="580" width="825" height="240" rx="18"/>
  <text class="h" x="74" y="620">Socle retail historique et stock</text>
  <text class="small" x="74" y="652">StoreLand par marque, StoreLand Fournitures mutualisé.</text>
  <text class="small" x="74" y="672">Stocks magasins, dépôts B2C, dépôts canal.</text>
  <text class="small" x="74" y="692">Module Négoce, moteur réassort, stock virtuel.</text>

  <rect class="purple" x="910" y="315" width="440" height="220" rx="18"/>
  <text class="h" x="934" y="355">B2B / wholesale et engagement commercial</text>
  <text class="small" x="934" y="387">Zoho CRM, Elastic, Négoce, Product Live.</text>
  <text class="small" x="934" y="407">Assortiment, achats, catalogue et pilotage commercial.</text>

  <rect class="grey" x="910" y="580" width="440" height="240" rx="18"/>
  <text class="h" x="934" y="620">Exécution, fournisseurs et systèmes</text>
  <text class="h" x="934" y="644">spécialisés</text>
  <text class="small" x="934" y="676">CBS, dépôts, transport, finance.</text>
  <text class="small" x="934" y="696">Achats fournisseur, packing list, documents et écritures.</text>

  <path class="arrowSoft" d="M210 220 C210 270 220 292 245 315"/>
  <path class="arrowSoft" d="M510 220 C510 270 490 292 462 315"/>
  <path class="arrowAccent" d="M1030 220 C1040 270 1070 292 1115 315"/>
  <path class="arrow" d="M462 535 C462 560 462 565 462 580"/>
  <path class="arrow" d="M690 535 C760 574 832 618 910 650"/>
  <path class="arrowSoft" d="M1115 535 C1080 580 1060 602 1030 650"/>
  <rect class="core" x="370" y="850" width="660" height="54" rx="18"/>
  <text class="smallWhite" x="700" y="882" text-anchor="middle">Responsabilités candidates FLOW : Demand, Order Lifecycle, Inventory Visibility, Promise,</text>
  <text class="smallWhite" x="700" y="900" text-anchor="middle">Allocation, Exceptions.</text>
  <rect class="panelSoft" x="1065" y="850" width="285" height="54" rx="14"/>
  <text class="small" x="1088" y="874">Les expériences restent autonomes ; les</text>
  <text class="small" x="1088" y="891">responsabilités transverses doivent être</text>
  <text class="small" x="1088" y="908">réconciliées.</text>
</svg>
