<svg xmlns="http://www.w3.org/2000/svg" width="1280" height="620" viewBox="0 0 1280 620" role="img"><defs><style>.bg{fill:#f8fbfa}.box{fill:#fff;stroke:#c7e4de;stroke-width:2}.core{fill:#236159;stroke:#0b3954;stroke-width:2}.accent{fill:#fff8f0;stroke:#e09238;stroke-width:2}.h{font:700 24px Aptos,Calibri,sans-serif;fill:#236159}.hw{font:700 24px Aptos,Calibri,sans-serif;fill:#fff}.t{font:500 16px Aptos,Calibri,sans-serif;fill:#1e293b}.tw{font:500 16px Aptos,Calibri,sans-serif;fill:#eaf4f2}.s{font:600 14px Aptos,Calibri,sans-serif;fill:#5b6b78}.a{stroke:#236159;stroke-width:3;fill:none;marker-end:url(#m)}.aa{stroke:#e09238;stroke-width:3;fill:none;marker-end:url(#ma)}</style><marker id="m" viewBox="0 0 10 10" refX="9" refY="5" markerWidth="8" markerHeight="8" orient="auto"><path d="M0,0 L10,5 L0,10z" fill="#236159"/></marker><marker id="ma" viewBox="0 0 10 10" refX="9" refY="5" markerWidth="8" markerHeight="8" orient="auto"><path d="M0,0 L10,5 L0,10z" fill="#e09238"/></marker></defs><rect class="bg" width="1280" height="620" rx="24"/><text class="h" x="54" y="58">Externalisation des décisions</text><text class="s" x="54" y="84">Les variations métier sont gouvernées par des policies et règles explicites, pas codées dans tous les processus.</text><rect class="box" x="70" y="185" width="230" height="250" rx="18"/><text class="h" x="112" y="228">Contexte</text><text class="t" x="105" y="270">Case</text><text class="t" x="105" y="300">Client</text><text class="t" x="105" y="330">Stock</text><text class="t" x="105" y="360">Canal</text><text class="t" x="105" y="390">SLA</text><rect class="accent" x="385" y="135" width="230" height="130" rx="18"/><text class="h" x="442" y="180">Facts</text><text class="t" x="425" y="210">situation exploitable</text><rect class="accent" x="385" y="350" width="230" height="130" rx="18"/><text class="h" x="436" y="395">Policies</text><text class="t" x="422" y="425">règles / contraintes</text><rect class="core" x="730" y="215" width="240" height="170" rx="24"/><text class="hw" x="765" y="280">Decision service</text><text class="tw" x="778" y="312">choix explicable</text><rect class="box" x="1070" y="185" width="160" height="250" rx="18"/><text class="h" x="1110" y="228">Action</text><text class="t" x="1100" y="270">réserver</text><text class="t" x="1100" y="300">allouer</text><text class="t" x="1100" y="330">annuler</text><text class="t" x="1100" y="360">rembourser</text><path class="a" d="M300 300 C340 260 350 220 385 200"/><path class="a" d="M300 330 C340 380 350 410 385 415"/><path class="aa" d="M615 200 C665 220 690 255 730 270"/><path class="aa" d="M615 415 C670 390 690 350 730 330"/><path class="a" d="M970 300 L1070 300"/></svg>