<svg xmlns="http://www.w3.org/2000/svg" width="1280" height="620" viewBox="0 0 1280 620" role="img"><defs><style>.bg{fill:#f8fbfa}.box{fill:#fff;stroke:#c7e4de;stroke-width:2}.cmd{fill:#fff8f0;stroke:#e09238;stroke-width:2}.read{fill:#eaf4f2;stroke:#236159;stroke-width:2}.h{font:700 24px Aptos,Calibri,sans-serif;fill:#236159}.t{font:500 16px Aptos,Calibri,sans-serif;fill:#1e293b}.s{font:600 14px Aptos,Calibri,sans-serif;fill:#5b6b78}.a{stroke:#236159;stroke-width:3;fill:none;marker-end:url(#m)}.aa{stroke:#e09238;stroke-width:3;fill:none;marker-end:url(#ma)}</style><marker id="m" viewBox="0 0 10 10" refX="9" refY="5" markerWidth="8" markerHeight="8" orient="auto"><path d="M0,0 L10,5 L0,10z" fill="#236159"/></marker><marker id="ma" viewBox="0 0 10 10" refX="9" refY="5" markerWidth="8" markerHeight="8" orient="auto"><path d="M0,0 L10,5 L0,10z" fill="#e09238"/></marker></defs><rect class="bg" width="1280" height="620" rx="24"/><text class="h" x="54" y="58">CQRS et projections</text><text class="s" x="54" y="84">Séparer ce qui modifie le système de ce qui est lu par les consommateurs.</text><rect class="cmd" x="80" y="210" width="230" height="130" rx="18"/><text class="h" x="130" y="255">Command</text><text class="t" x="118" y="286">ReserveStock</text><text class="t" x="118" y="312">CreateCase</text><rect class="box" x="440" y="190" width="260" height="170" rx="22"/><text class="h" x="505" y="240">Write model</text><text class="t" x="485" y="272">valide l'intention</text><text class="t" x="485" y="300">produit des événements</text><rect class="cmd" x="820" y="135" width="260" height="110" rx="18"/><text class="h" x="890" y="178">Events</text><text class="t" x="864" y="207">faits immuables</text><rect class="read" x="820" y="340" width="260" height="120" rx="18"/><text class="h" x="880" y="385">Read models</text><text class="t" x="860" y="415">projections spécialisées</text><rect class="read" x="520" y="450" width="250" height="90" rx="18"/><text class="h" x="576" y="486">Consommateurs</text><text class="t" x="560" y="515">API · Vues 360 · UI</text><path class="aa" d="M310 275 L440 275"/><path class="aa" d="M700 252 C760 230 780 190 820 190"/><path class="a" d="M950 245 L950 340"/><path class="a" d="M820 405 C770 440 760 480 770 495"/><path class="a" d="M520 495 C420 495 360 360 310 315"/></svg>