<svg xmlns="http://www.w3.org/2000/svg" width="1280" height="620" viewBox="0 0 1280 620" role="img"><defs><style>.bg{fill:#f8fbfa}.box{fill:#fff;stroke:#c7e4de;stroke-width:2}.core{fill:#236159;stroke:#0b3954;stroke-width:2}.accent{fill:#fff8f0;stroke:#e09238;stroke-width:2}.h{font:700 24px Aptos,Calibri,sans-serif;fill:#236159}.hw{font:700 23px Aptos,Calibri,sans-serif;fill:#fff}.t{font:500 16px Aptos,Calibri,sans-serif;fill:#1e293b}.tw{font:500 15px Aptos,Calibri,sans-serif;fill:#eaf4f2}.s{font:600 14px Aptos,Calibri,sans-serif;fill:#5b6b78}.a{stroke:#236159;stroke-width:3;fill:none;marker-end:url(#m)}.aa{stroke:#e09238;stroke-width:3;fill:none;marker-end:url(#ma)}</style><marker id="m" viewBox="0 0 10 10" refX="9" refY="5" markerWidth="8" markerHeight="8" orient="auto"><path d="M0,0 L10,5 L0,10z" fill="#236159"/></marker><marker id="ma" viewBox="0 0 10 10" refX="9" refY="5" markerWidth="8" markerHeight="8" orient="auto"><path d="M0,0 L10,5 L0,10z" fill="#e09238"/></marker></defs><rect class="bg" width="1280" height="620" rx="24"/><text class="h" x="54" y="58">Operational DataHub</text><text class="s" x="54" y="84">Transformer des faits distribués en vérité opérationnelle fraîche, gouvernée et consommable.</text><rect class="box" x="70" y="150" width="230" height="310" rx="18"/><text class="h" x="116" y="192">Sources</text><text class="t" x="106" y="235">POS</text><text class="t" x="106" y="265">WMS</text><text class="t" x="106" y="295">C-LOG</text><text class="t" x="106" y="325">SAP / NewStore</text><text class="t" x="106" y="355">Partenaires</text><rect class="core" x="440" y="135" width="400" height="340" rx="28"/><text class="hw" x="535" y="178">Operational DataHub</text><rect class="accent" x="488" y="220" width="130" height="68" rx="16"/><text class="h" x="516" y="250">Ledger</text><text class="s" x="509" y="273">historique</text><rect class="accent" x="662" y="220" width="130" height="68" rx="16"/><text class="h" x="682" y="250">Qualité</text><text class="s" x="678" y="273">fraîcheur</text><rect class="accent" x="488" y="330" width="130" height="68" rx="16"/><text class="h" x="506" y="360">Projection</text><text class="s" x="512" y="383">lecture</text><rect class="accent" x="662" y="330" width="130" height="68" rx="16"/><text class="h" x="680" y="360">Confiance</text><text class="s" x="690" y="383">source</text><rect class="box" x="980" y="150" width="230" height="310" rx="18"/><text class="h" x="1025" y="192">Usages</text><text class="t" x="1016" y="235">API métier</text><text class="t" x="1016" y="265">Décisions</text><text class="t" x="1016" y="295">Vues 360</text><text class="t" x="1016" y="325">Audit</text><text class="t" x="1016" y="355">Monitoring</text><path class="a" d="M300 305 L440 305"/><text class="s" x="328" y="287">événements / faits</text><path class="aa" d="M840 305 L980 305"/><text class="s" x="872" y="287">produits de données</text></svg>